<?xml version="1.0" encoding="UTF-8" standalone="no"?>
<svg width="144px" height="64px" viewBox="0 0 144 64" version="1.1" xmlns="http://www.w3.org/2000/svg" xmlns:xlink="http://www.w3.org/1999/xlink">
    <!-- Generator: Sketch 48.2 (47327) - http://www.bohemiancoding.com/sketch -->
    <title>huji</title>
    <desc>Created with Sketch.</desc>
    <defs></defs>
    <g id="Page-1" stroke="none" stroke-width="1" fill="none" fill-rule="evenodd">
        <g id="huji" fill="#FFFFFF" fill-rule="nonzero">
            <g transform="translate(2.000000, 9.000000)" id="Shape">
                <path d="M0.128818636,42.1630616 C0.440499168,41.8238935 0.769650582,41.4991681 1.06094842,41.1433444 C2.56018303,39.3121631 4.04509151,37.4691015 5.54688852,35.6400166 C5.82281198,35.3039933 5.93241265,34.934426 5.95081531,34.5165225 C5.99332779,33.5484027 6.0285025,32.5797005 6.09,31.6128619 C6.18597338,30.1054742 6.30547421,28.5997171 6.40668885,27.0926789 C6.45991681,26.3000832 6.49066556,25.5059734 6.54016639,24.7131448 C6.64755408,22.9927288 6.76146423,21.2727787 6.87083195,19.5525957 C6.91509151,18.8565557 6.95865225,18.1605158 6.99510815,17.46401 C7.04472546,16.5156905 7.08141431,15.5666722 7.13394343,14.6184692 C7.21011647,13.2451414 7.29467554,11.8722795 7.37911814,10.4993012 C7.38482529,10.4063561 7.41976705,10.3151581 7.45762063,10.1524459 C8.24835275,10.1218136 9.03186356,10.135208 9.8046589,10.1433611 C9.84763727,10.2435275 9.88688852,10.294426 9.88968386,10.3473045 C9.93673877,11.2569551 9.98134775,12.1667221 10.022579,13.0767221 C10.1067887,14.935391 10.1856406,16.7942928 10.2724126,18.6527288 C10.3438103,20.1817804 10.4245258,21.7102496 10.4990682,23.2391847 C10.5793178,24.8843594 10.6539767,26.5297671 10.7392346,28.1745923 C10.7521631,28.4230283 10.809584,28.6691348 10.8673544,29.056406 C13.0519135,26.3260566 15.1616972,23.6892346 17.347421,20.957371 C17.9257072,22.126173 18.4547255,23.1965557 18.9846755,24.2663561 C19.5079867,25.3227621 20.0322296,26.3787022 20.5988686,27.5211814 C21.9343428,26.2164559 23.2208985,24.9593677 24.5686023,23.6425291 C25.0435774,24.6222962 25.4961897,25.5557072 25.9606822,26.5139268 C25.2878203,27.3823461 24.6246256,28.2407488 23.9585191,29.0969384 C23.51802,29.6633444 23.0843927,30.235574 22.6259567,30.7873045 C22.4080366,31.0496007 22.4003494,31.2700832 22.5544426,31.572213 C23.2330116,32.9031448 23.8878203,34.2463062 24.5501997,35.585624 C24.6443095,35.7760566 24.7325957,35.9692845 24.8462729,36.2091015 C24.2126622,37.0263894 23.574975,37.848802 22.8778869,38.74797 C21.9087188,37.3541431 21.0319135,35.990599 20.1257571,34.6473211 C19.2270549,33.3151082 18.3236938,31.9860399 17.400416,30.6233111 C17.2589018,30.7404825 17.1359068,30.8287687 17.0286356,30.9331281 C15.3316306,32.5842429 13.6336938,34.234426 11.9420466,35.8908985 C9.19643927,38.5794343 6.45618968,41.2734443 3.71174709,43.9631448 C2.68608985,44.9683028 1.65379368,45.966589 0.627787022,46.9713977 C0.490582363,47.105807 0.372479201,47.2596672 0.245407654,47.4045591 C0.0157237937,47.4223794 0.135341098,47.2448752 0.134991681,47.171614 C0.127071547,45.50198 0.128818636,43.8324626 0.128818636,42.1630616 Z"></path>
                <path d="M139.895874,24.2262895 C139.64406,24.3509151 139.630899,24.5755907 139.632413,24.8183195 C139.637887,25.6705491 139.634509,26.5228952 139.634393,27.3752413 C139.634393,27.5845424 139.634393,27.7939601 139.634393,28.0482196 C139.354742,28.0482196 139.13624,28.0482196 138.854027,28.0482196 C138.854027,26.8515807 138.854027,25.6591348 138.854027,24.4240599 C138.628186,24.4081032 138.460349,24.3869052 138.29228,24.3858569 C137.633744,24.3817804 136.974509,24.3681531 136.316672,24.3905158 C135.960616,24.402629 135.716373,24.2955907 135.567521,23.8851414 C135.716839,23.6757238 135.891314,23.4312479 136.093045,23.1483361 C136.344393,23.4777205 136.655025,23.4991514 136.993378,23.4977537 C137.960799,23.4936772 138.92822,23.5156905 139.895641,23.5274542 C139.895874,23.7603993 139.895874,23.9933444 139.895874,24.2262895 Z"></path>
                <path d="M8.84212978,4.88975042 C9.50544093,4.88975042 10.0965391,4.88975042 10.777787,4.88975042 C10.5921298,6.03851913 10.4203328,7.10074875 10.247604,8.16950083 C10.1571048,8.20455907 10.0876872,8.25429285 10.0178037,8.25499168 C9.16382696,8.2625624 8.30973378,8.25778702 7.45587354,8.2685025 C7.20801997,8.27164725 7.06417637,8.1628619 6.95341098,7.95262895 C6.38106489,6.86535774 6.07101498,5.71891847 6.17222962,4.48326123 C6.1909817,4.25497504 6.25410982,4.02342762 6.33645591,3.80853577 C6.84532446,2.48109817 7.55440932,1.26011647 8.33407654,0.0527620632 C8.60103161,0.201148087 8.63608985,0.472412646 8.74627288,0.684509151 C8.98737105,1.14888519 9.33049917,1.61093178 9.39153078,2.10361065 C9.45221298,2.59314476 9.2196173,3.11948419 9.11304493,3.62916805 C9.03093178,4.02133111 8.94485857,4.41244592 8.84212978,4.88975042 Z"></path>
                <path d="M37.0784526,28.0606822 C35.7816473,28.0606822 34.571381,28.0606822 33.3053245,28.0606822 C33.3053245,26.8553078 33.3053245,25.6819634 33.3053245,24.4998835 C32.9822296,24.3716473 32.6739268,24.279401 32.592629,23.8640599 C32.7330948,23.6668719 32.8979035,23.4355574 33.080416,23.1793178 C33.2468552,23.2920632 33.3717138,23.4206489 33.5219634,23.4665391 C33.6824626,23.5156905 33.8668386,23.4909983 34.0408486,23.4913478 C34.9509651,23.4928619 35.8609651,23.4902995 36.7710815,23.4935607 C36.9588353,23.4942596 37.146589,23.5134775 37.4121464,23.5285025 C37.3512313,23.8193344 37.367188,24.1046922 37.2356905,24.2787022 C37.0720466,24.4954576 37.0804326,24.7026622 37.0795008,24.9281531 C37.0761231,25.7608153 37.0783361,26.5933611 37.0783361,27.4260233 C37.0784526,27.6171547 37.0784526,27.8081697 37.0784526,28.0606822 Z M36.3221963,27.2119468 C36.3221963,26.6913145 36.3336106,26.2454576 36.3190516,25.800416 C36.3041431,25.3448918 36.3904493,24.8808652 36.2506822,24.4187022 C35.5136439,24.4187022 34.8049085,24.4187022 34.0846423,24.4187022 C34.0846423,25.3716805 34.0846423,26.2893677 34.0846423,27.2118303 C34.8383361,27.2119468 35.5485857,27.2119468 36.3221963,27.2119468 Z"></path>
                <path d="M109.1802,23.8856073 C109.335574,23.6719967 109.503527,23.4410316 109.704443,23.1646423 C109.933195,23.4493012 110.205973,23.5075374 110.529185,23.4996173 C111.419501,23.4777205 112.310632,23.490416 113.201414,23.4934443 C113.390333,23.4941431 113.579135,23.5123128 113.841664,23.5262895 C113.787038,23.9629451 113.749301,24.3587188 113.686173,24.750416 C113.544775,25.6280366 113.376123,26.5015807 113.249867,27.3811814 C113.205141,27.6925125 113.067937,27.8078203 112.772329,27.8433444 C111.966572,27.9403661 111.163611,28.0605657 110.359018,28.1678369 C110.286689,28.1775042 110.210749,28.1594509 110.078669,28.1502496 C109.997138,27.5332945 109.915724,26.9250749 109.836988,26.3165058 C109.817072,26.1631115 109.807288,26.0084359 109.789351,25.8546922 C109.749052,25.5091181 109.751498,25.1502662 109.652146,24.8222795 C109.556406,24.5060566 109.354792,24.2216306 109.1802,23.8856073 Z M112.917221,24.4146256 C112.039018,24.4146256 111.271814,24.4146256 110.432629,24.4146256 C110.530116,25.3263727 110.62376,26.2009651 110.725674,27.1532446 C111.331215,27.0925624 111.898203,27.0358403 112.507121,26.9748087 C112.642696,26.1285191 112.773261,25.3128619 112.917221,24.4146256 Z"></path>
                <path d="M45.0823295,23.6626789 C45.3109651,23.4843594 45.5052413,23.3328286 45.7603161,23.1338935 C46.0078203,23.9893844 46.2361065,24.7788353 46.4987521,25.6868552 C47.0751747,24.7881531 47.5900998,23.9855408 48.1425291,23.1242263 C48.3375042,23.3463394 48.4839101,23.5132446 48.6511647,23.7036772 C48.3350582,24.2046256 48.0372379,24.6785524 47.7373211,25.151198 C47.4569717,25.5929784 47.1742928,26.0332446 46.8925458,26.4740932 C46.7673378,26.6701165 46.7699002,26.6711647 46.9393677,27.0466722 C47.4715308,26.84401 48.0163894,26.6566057 48.5405158,26.4227288 C48.671198,26.3644925 48.7639101,26.1680033 48.8247088,26.0153078 C49.1256739,25.2600998 49.4090516,24.497787 49.7011647,23.7389684 C49.7690682,23.5625125 49.8469884,23.3900166 49.9217637,23.2121631 C50.5256739,23.5654243 50.5542097,23.6372879 50.3409484,24.2210483 C50.0420799,25.0393844 49.7291181,25.8529451 49.4503993,26.6780366 C49.3396339,27.0057903 49.1517637,27.1796839 48.8272712,27.289401 C48.0218636,27.5615973 47.2286855,27.8697837 46.3556073,28.1911314 C45.8806323,26.6937604 45.5191015,25.1994176 45.0823295,23.6626789 Z"></path>
                <path d="M67.9020965,23.1204992 C68.1104659,23.4907654 68.3920965,23.4982196 68.6903827,23.4953078 C69.5827953,23.4865724 70.4754409,23.4907654 71.36797,23.4933278 C71.5581697,23.4939101 71.7482529,23.5091681 71.9673378,23.5189517 C72.0101997,23.8335441 72.0509651,24.096772 71.8576206,24.3674542 C71.7681697,24.4927787 71.7602496,24.6940433 71.758386,24.8614143 C71.7491847,25.7150416 71.7540765,26.5687854 71.7540765,27.4225291 C71.7540765,27.6130782 71.7540765,27.8037438 71.7540765,28.0583527 C71.4831614,28.0702329 71.2623295,28.0800166 70.9577537,28.093411 C70.9159401,26.8619468 70.960782,25.666589 70.9306156,24.4297671 C70.2363228,24.4297671 69.5725458,24.4297671 68.8431947,24.4297671 C68.8894343,25.613827 68.9343927,26.7678369 68.9816805,27.9805491 C68.3403827,28.0531115 67.7563894,28.1191514 67.1287188,28.1901997 C67.1287188,27.8779368 67.1287188,27.6347421 67.1287188,27.3390183 C67.4484359,27.2778702 67.7627953,27.2177704 68.1511148,27.1434609 C68.1143095,26.2449917 68.0780865,25.3615474 68.0460566,24.5821131 C67.7546423,24.3411314 67.5424293,24.1654908 67.30203,23.9666722 C67.5050416,23.6803827 67.6704326,23.4470882 67.9020965,23.1204992 Z"></path>
                <path d="M66.88203,32.1445591 C66.5263228,33.5197504 66.1841265,34.8425291 65.8338935,36.1962895 C65.5432945,36.1962895 65.2815807,36.1962895 64.9636106,36.1962895 C64.6917637,35.2157072 64.4187521,34.2308153 64.1375874,33.2165724 C63.8635275,34.219401 63.5951747,35.201381 63.3211148,36.2037438 C63.0393677,36.2037438 62.7948918,36.2037438 62.4921797,36.2037438 C62.1484692,34.8821298 61.8045258,33.559584 61.4383361,32.1516639 C61.7045923,32.1333777 61.9030616,32.1196339 62.1721131,32.1011148 C62.435574,33.1033611 62.6936772,34.0852246 62.9592346,35.0958569 C63.237604,34.0972213 63.5068885,33.1310815 63.7780366,32.1581864 C63.9254908,32.1374542 64.0373045,32.1199834 64.1494676,32.1062396 C64.450782,32.0694343 64.6023128,32.2006988 64.6810483,32.4999168 C64.9074709,33.3600666 65.1611481,34.212995 65.4177371,35.1164725 C65.675025,34.1052579 65.9213644,33.137371 66.1739933,32.1446755 C66.4086855,32.1445591 66.6096007,32.1445591 66.88203,32.1445591 Z"></path>
                <path d="M137.161681,35.1049418 C137.503411,34.094193 137.825458,33.1412146 138.1602,32.1509651 C138.431814,32.1509651 138.692363,32.1509651 139.022795,32.1509651 C139.226739,33.4786356 139.431148,34.808985 139.643361,36.1905824 C139.381997,36.1905824 139.163028,36.1905824 138.892812,36.1905824 C138.748386,35.2314309 138.605125,34.2797338 138.453943,33.2758569 C138.130616,34.2721631 137.822779,35.2210649 137.50574,36.1980366 C137.263012,36.1980366 137.040433,36.1980366 136.766839,36.1980366 C136.467737,35.3107488 136.167471,34.4198502 135.867205,33.5290682 C135.839717,33.5274376 135.81223,33.525807 135.784859,33.5241764 C135.673278,34.3929451 135.561814,35.2617138 135.441847,36.1959401 C135.236156,36.2080532 135.036988,36.2197005 134.779584,36.2347255 C134.732413,35.4910483 134.945907,34.8214476 135.018819,34.1411314 C135.090333,33.4744426 135.230216,32.814975 135.343078,32.1345424 C135.628203,32.1345424 135.855208,32.1345424 136.145923,32.1345424 C136.539601,33.0735441 136.814126,34.0769551 137.161681,35.1049418 Z"></path>
                <path d="M103.689451,24.4111314 C103.765391,24.1956572 103.801847,24.1077205 103.827471,24.0166389 C103.945691,23.5960566 104.215674,23.4512812 104.649884,23.4838935 C105.130449,23.52 105.615907,23.4921631 106.170666,23.4921631 C106.072596,24.9181364 105.842562,26.28203 105.676938,27.690183 C104.54599,27.8595341 103.459068,28.0222463 102.304592,28.1950915 C102.259401,27.9535275 102.199418,27.7345591 102.1802,27.51198 C102.086672,26.430416 102.026223,25.3454742 101.908236,24.266822 C101.847321,23.7105491 102.053478,23.3838436 102.618136,23.1843261 C102.853877,24.46599 102.798902,25.7675707 103.005175,27.0361897 C103.431231,27.1527787 104.13787,27.0902329 104.956323,26.8483195 C105.061498,26.0875208 105.171681,25.2902662 105.293278,24.411015 C104.767055,24.4111314 104.278336,24.4111314 103.689451,24.4111314 Z"></path>
                <path d="M133.831265,23.5184859 C134.130948,23.5184859 134.339434,23.5184859 134.620133,23.5184859 C134.549551,24.0020799 134.485025,24.4521298 134.417704,24.9017138 C134.35213,25.3406988 134.150399,25.8141597 134.253943,26.2080699 C134.357604,26.6026789 134.765141,26.9172712 135.038386,27.2678536 C135.061797,27.2979035 135.076356,27.3348253 135.127255,27.4269551 C135.035125,27.6249584 134.926805,27.85802 134.771897,28.1908985 C133.74589,27.0054409 132.788136,25.8988353 131.750832,24.7002163 C131.568087,25.8657571 131.3999,26.9390516 131.225657,28.0500832 C130.981531,28.0500832 130.760466,28.0500832 130.507488,28.0500832 C130.494326,27.9813644 130.460316,27.9075208 130.4701,27.8399667 C130.660765,26.5182363 130.862263,25.1981364 131.047571,23.8757072 C131.096489,23.5265225 131.328386,23.3959567 131.678153,23.2624792 C132.250383,23.9403494 132.830765,24.6278869 133.447488,25.3585191 C133.582712,24.7102329 133.704193,24.1276373 133.831265,23.5184859 Z"></path>
                <path d="M83.8915641,28.2791847 C83.8915641,27.9610982 83.8915641,27.7172047 83.8915641,27.4234609 C84.2836106,27.3492679 84.6757737,27.2750749 85.1366556,27.1879534 C85.1233777,27.0132446 85.1238436,26.8287521 85.0933278,26.6496173 C84.9567055,25.8496839 84.8048253,25.0523128 84.6706489,24.2519135 C84.557787,23.5784692 84.5653577,23.577188 85.2914476,23.2632945 C85.6342263,24.5096672 85.7030616,25.8008819 86.0079867,27.0354908 C87.0106988,27.0011314 86.9458236,27.0290849 87.0449418,26.1888519 C87.1263561,25.4986356 87.2589018,24.8143594 87.3659401,24.1270549 C87.4709983,23.4523295 87.4983694,23.426589 88.3171714,23.3449418 C88.0753744,24.8020133 87.8363727,26.2419634 87.5865391,27.7478369 C86.3714975,27.9225458 85.173228,28.0949251 83.8915641,28.2791847 Z"></path>
                <path d="M73.7584526,36.2137604 C73.4951082,36.2137604 73.3254077,36.2137604 73.1624626,36.2137604 C73.016173,35.7853744 72.9947421,32.7476539 73.1339268,32.1513145 C73.2544759,32.1367554 73.3851581,32.1217304 73.5156073,32.1051913 C73.8373045,32.0645424 74.0519634,32.1749584 74.2204992,32.475807 C74.6176705,33.1847754 75.052812,33.8723128 75.4726955,34.5685857 C75.5301165,34.6637438 75.587421,34.7589018 75.6448419,34.8540599 C75.6733777,34.8475374 75.70203,34.841015 75.7306822,34.834609 C75.7306822,33.9572213 75.7306822,33.0797171 75.7306822,32.1559734 C75.9777205,32.1559734 76.1730449,32.1559734 76.4006323,32.1559734 C76.4006323,33.5114809 76.4006323,34.8371714 76.4006323,36.1948918 C76.2600499,36.2109651 76.1485857,36.2202829 76.0381697,36.2369384 C75.6891015,36.289584 75.4667554,36.1500499 75.2916972,35.8381364 C74.9034942,35.1462895 74.4827953,34.4727288 74.0746755,33.7921797 C73.9968719,33.6624293 73.915574,33.5348918 73.7584526,33.2815641 C73.7584526,34.3302829 73.7584526,35.2410982 73.7584526,36.2137604 Z"></path>
                <path d="M42.4587854,28.1582862 C42.2852413,28.0696506 42.1154243,27.9828785 41.8781697,27.8615141 C42.3282196,26.6830449 42.9204825,25.5814476 43.4005824,24.3602329 C42.4655408,24.3602329 41.5988686,24.3602329 40.6562562,24.3602329 C40.6416972,23.1020965 40.6512479,21.8905491 40.651015,20.6582696 C40.8853577,20.5493677 41.0912812,20.4536273 41.3704659,20.3237604 C41.5284027,20.8540599 41.4395341,21.3523295 41.4549085,21.83802 C41.4707488,22.3381531 41.4584027,22.839218 41.4584027,23.4126123 C41.8694343,23.4392845 42.2286356,23.4714309 42.5885358,23.4833111 C42.9759235,23.4961231 43.3641265,23.4848253 43.7517471,23.4935607 C44.1873544,23.5034609 44.4042263,23.795807 44.2990516,24.2179035 C44.2943927,24.2366556 44.2896173,24.2558735 44.2818136,24.2734609 C43.7101664,25.543827 43.1382862,26.8140765 42.5651248,28.0836273 C42.5584859,28.0988852 42.5348419,28.1061065 42.4587854,28.1582862 Z"></path>
                <path d="M81.9959734,24.3839933 C81.3941597,24.3839933 80.8738769,24.3680366 80.3549917,24.3894676 C79.9913644,24.4044925 79.7642429,24.2691514 79.645208,23.8703494 C79.7917304,23.6652413 79.956772,23.4341597 80.1391681,23.1788519 C80.3058403,23.2920632 80.4304659,23.4207654 80.5803661,23.4666556 C80.7408652,23.515807 80.9252413,23.4907654 81.0992512,23.4914642 C81.6384027,23.4934443 82.1776705,23.4921631 82.7775042,23.4921631 C82.7775042,24.703594 82.7775042,25.8584193 82.7775042,27.0323461 C83.0081198,27.0908153 83.1849251,27.1355408 83.3851414,27.1862063 C83.3851414,27.4260233 83.3851414,27.6511647 83.3851414,27.9218469 C82.0665557,28.1688852 80.7397005,28.014792 79.3813977,28.1693511 C79.3813977,27.8422962 79.3813977,27.6008486 79.3813977,27.291614 C80.2232612,27.2431614 81.0638436,27.1948253 81.9765225,27.1424126 C81.9832779,26.6738436 81.9921298,26.2373045 81.9952745,25.8007654 C81.9985358,25.357005 81.9959734,24.9131281 81.9959734,24.3839933 Z"></path>
                <path d="M63.5060732,23.4921631 C63.5060732,24.7299168 63.5060732,25.8853245 63.5060732,27.0717138 C63.7336606,27.1061897 63.916406,27.1339101 64.1342097,27.1669884 C64.1342097,27.4242762 64.1342097,27.6646755 64.1342097,27.9854409 C62.7994343,28.042396 61.4954077,28.0979534 60.1445591,28.1556073 C60.1445591,27.8528952 60.1445591,27.5957238 60.1445591,27.2895175 C61.0026123,27.240599 61.8448253,27.1926123 62.72198,27.1426456 C62.72198,26.2154077 62.72198,25.3374376 62.72198,24.3842263 C62.1711814,24.3842263 61.6528785,24.3660566 61.1365557,24.3902829 C60.755574,24.4081032 60.5023627,24.2868552 60.384376,23.8647587 C60.5363727,23.6569717 60.7045591,23.4272879 60.9102496,23.1463561 C61.152396,23.4723627 61.4567388,23.5103328 61.7942762,23.4977537 C62.33401,23.4774875 62.8752579,23.4921631 63.5060732,23.4921631 Z"></path>
                <path d="M119.644792,23.108619 C119.844775,23.4704992 120.096123,23.5043927 120.38381,23.4967055 C120.962679,23.4812146 121.542246,23.4920466 122.1903,23.4920466 C122.254359,24.1194842 122.215341,24.7140765 122.222446,25.3055241 C122.229434,25.8839268 122.22396,26.4624459 122.22396,27.0738103 C122.444093,27.107005 122.626722,27.134609 122.843361,27.1672213 C122.843361,27.4260233 122.843361,27.6661897 122.843361,27.9846256 C121.506489,28.0420466 120.201997,28.0979534 118.850449,28.1559567 C118.850449,27.8524293 118.850449,27.5953744 118.850449,27.2890516 C119.710366,27.2403661 120.552696,27.1926123 121.429734,27.1428785 C121.429734,26.2155241 121.429734,25.3372047 121.429734,24.3838769 C120.881847,24.3838769 120.363195,24.3657072 119.846522,24.3899334 C119.465774,24.4077537 119.211747,24.2876705 119.093062,23.8637105 C119.244592,23.6563894 119.412546,23.426589 119.644792,23.108619 Z"></path>
                <path d="M105.150017,34.0915141 C105.075824,34.4290516 105.045657,34.7841764 104.919401,35.1009817 C104.475641,36.2157404 103.037671,36.6515807 102.034958,35.9953744 C101.410316,35.5865557 101.25995,34.9330283 101.252962,34.2665724 C101.24178,33.2066722 101.703361,32.4548419 102.565957,32.1440932 C103.860782,31.6777371 105.031448,32.4721963 105.093295,33.8473877 C105.096789,33.9248419 105.09376,34.0025291 105.09376,34.0800998 C105.112512,34.0839434 105.131265,34.0876705 105.150017,34.0915141 Z M102.025175,34.0420133 C102.044276,34.327604 102.041947,34.484376 102.067105,34.6367221 C102.163311,35.2201331 102.530083,35.5870216 103.045125,35.62802 C103.611414,35.6730948 104.039917,35.3856406 104.242113,34.8202829 C104.404825,34.3652246 104.390965,33.9103993 104.244908,33.4519634 C104.091398,32.9701165 103.758985,32.717371 103.266889,32.6731115 C102.792379,32.6304825 102.358053,32.8994176 102.174842,33.3791681 C102.080266,33.6270216 102.055458,33.9014309 102.025175,34.0420133 Z"></path>
                <path d="M51.7984859,32.1691348 C52.4253411,32.0178369 52.9780033,32.0187687 53.5360233,32.1176539 C53.9433278,32.1898669 54.2774875,32.3588686 54.4142263,32.7751414 C54.5485191,33.1838436 54.4336772,33.536173 54.1199002,33.8272379 C54.0659734,33.8772047 54.0192679,33.934975 53.9387854,34.022213 C54.2744592,34.2380366 54.5239434,34.488802 54.5451414,34.8966889 C54.5813644,35.5912146 54.0847255,36.1477205 53.2875874,36.2215641 C52.8299667,36.2639601 52.3651248,36.2292512 51.8409983,36.2292512 C51.7549251,34.8659401 51.8264393,33.5412978 51.7984859,32.1691348 Z M52.5610316,35.6463062 C52.8636273,35.6196339 53.1332612,35.6302329 53.3827454,35.564426 C53.6427121,35.4958236 53.7987854,35.2900166 53.8020466,35.0024459 C53.8054243,34.7078869 53.6415474,34.5201331 53.373777,34.4571215 C53.121614,34.3977205 52.8565225,34.3930616 52.5609151,34.3603328 C52.5610316,34.8186522 52.5610316,35.1931115 52.5610316,35.6463062 Z M52.5506656,33.8090682 C52.8653744,33.7766889 53.1167221,33.7825125 53.348619,33.7182196 C53.5929784,33.6504326 53.7078203,33.4511481 53.7061897,33.1833777 C53.7044426,32.9013977 53.5600166,32.7425291 53.3019135,32.7021131 C53.0647754,32.6649584 52.8211148,32.6692679 52.5506656,32.6535441 C52.5506656,33.0521131 52.5506656,33.3745092 52.5506656,33.8090682 Z"></path>
                <path d="M85.834792,32.1347754 C86.4540765,31.9757903 87.0823295,31.9976872 87.6977704,32.2029118 C88.0794509,32.3300998 88.2880532,32.6211647 88.325208,33.0298669 C88.3667887,33.4880699 88.2520632,33.8784859 87.8417304,34.1322795 C87.6787854,34.2330283 87.4982529,34.3052413 87.2837105,34.4113478 C87.7097671,34.9882363 88.1269717,35.5531281 88.5558236,36.1338602 C87.8473211,36.3204493 87.8192512,36.3125291 87.448985,35.8089018 C87.152213,35.405208 86.8587022,34.9993012 86.4715474,34.4678369 C86.4715474,34.8552246 86.4715474,35.1087854 86.4715474,35.3623461 C86.4715474,35.6287188 86.4715474,35.8950915 86.4715474,36.2030449 C86.2221797,36.2144592 86.0379201,36.2228453 85.8644925,36.2307654 C85.7214642,35.7694176 85.7027121,32.7277371 85.834792,32.1347754 Z M86.502995,33.8200166 C87.0664892,33.9328785 87.3442762,33.8703328 87.5057072,33.5878869 C87.6281198,33.3736938 87.6354576,33.1442429 87.4996506,32.9329617 C87.3355408,32.6777704 86.9542097,32.6142928 86.5031115,32.75802 C86.502995,33.1113977 86.502995,33.4690849 86.502995,33.8200166 Z"></path>
                <path d="M116.534276,34.4057571 C116.981065,35.0016306 117.397687,35.5573211 117.820366,36.1209318 C117.185008,36.3388519 117.083444,36.3133444 116.736938,35.8451248 C116.450649,35.458203 116.1703,35.0668552 115.7899,34.6907654 C115.7899,35.1742429 115.7899,35.657604 115.7899,36.1868552 C115.521314,36.1868552 115.324359,36.1868552 115.088968,36.1868552 C115.088968,34.8385691 115.088968,33.5099667 115.088968,32.1347754 C115.74995,31.9784692 116.392646,31.9933777 117.021481,32.2315641 C117.433095,32.3874043 117.605358,32.7442762 117.620732,33.1518136 C117.637038,33.5859068 117.443228,33.9424293 117.056772,34.1665225 C116.907687,34.2529451 116.742529,34.3116473 116.534276,34.4057571 Z M115.811448,33.8441265 C116.19371,33.9403328 116.540682,33.9339268 116.733677,33.6194509 C116.836755,33.4514975 116.861331,33.1299168 116.766639,32.9682529 C116.57178,32.6351414 116.205358,32.622213 115.811331,32.6888353 C115.811448,33.0726123 115.811448,33.4330948 115.811448,33.8441265 Z"></path>
                <path d="M56.8044759,34.4024958 C57.2559235,35.0043095 57.6815141,35.5716473 58.1228286,36.1598336 C57.5685358,36.3357072 57.208985,36.2318136 56.9380699,35.7605657 C56.7114143,35.3665391 56.4060233,35.0178203 56.0305158,34.6827288 C56.0305158,35.1749418 56.0305158,35.6672712 56.0305158,36.1996672 C55.7886023,36.2138769 55.6037604,36.2247088 55.427188,36.2350749 C55.2960399,35.8027288 55.2616805,32.9262063 55.374193,32.127787 C55.9953411,31.9810316 56.6227787,31.9990849 57.236589,32.2080366 C57.6422629,32.346173 57.8527288,32.6724126 57.8906988,33.0898502 C57.9332113,33.5580699 57.7237937,33.9169218 57.3308153,34.1615141 C57.1848752,34.2522463 57.0168053,34.3068719 56.8044759,34.4024958 Z M56.0823461,32.6788186 C56.0823461,33.1034775 56.0823461,33.4779368 56.0823461,33.8675374 C56.4583195,33.91599 56.7868885,33.9300832 57.0157571,33.6246922 C57.164376,33.4264559 57.1947754,33.1806988 57.0562895,32.9703494 C56.8349917,32.6340932 56.4866223,32.6336273 56.0823461,32.6788186 Z"></path>
                <path d="M36.5220632,36.2039767 C36.2315807,36.2039767 36.0469717,36.2039767 35.8203161,36.2039767 C35.8203161,34.847188 35.8203161,33.5207987 35.8203161,32.1430449 C36.0292679,32.1308153 36.213411,32.1199834 36.4724459,32.1047255 C36.4724459,32.6572712 36.4724459,33.1697504 36.4724459,33.7078536 C37.1319135,33.8188519 37.7247587,33.7531614 38.3907488,33.7670216 C38.3907488,33.222629 38.3907488,32.7109651 38.3907488,32.1504992 C38.6431448,32.1336106 38.8248419,32.1214975 38.9938436,32.1101997 C39.1563228,32.5600166 39.1828785,35.5885358 39.0395008,36.1950083 C38.9551747,36.2073544 38.8623461,36.230416 38.7692845,36.2318136 C38.6763394,36.2332113 38.5830449,36.2127121 38.4261564,36.194426 C38.4261564,35.6054243 38.4261564,35.0330782 38.4261564,34.4233444 C37.7691348,34.4233444 37.1780366,34.4233444 36.5220632,34.4233444 C36.5220632,34.9928952 36.5220632,35.5653577 36.5220632,36.2039767 Z"></path>
                <path d="M45.1823794,34.4158902 C45.1823794,35.0306323 45.1823794,35.5872546 45.1823794,36.1883694 C44.9351082,36.1883694 44.738386,36.1883694 44.5042762,36.1883694 C44.5042762,34.8391514 44.5042762,33.5141597 44.5042762,32.1571381 C44.6191181,32.1382696 44.7098502,32.1133444 44.8011647,32.111015 C44.8952745,32.1086855 44.9899667,32.1284859 45.1630449,32.147005 C45.1630449,32.6651913 45.1630449,33.1751082 45.1630449,33.7268386 C45.813777,33.7268386 46.3856572,33.7268386 47.0284692,33.7268386 C47.0284692,33.2267055 47.0284692,32.7151581 47.0284692,32.1565557 C47.2942596,32.1565557 47.4914476,32.1565557 47.7295175,32.1565557 C47.7295175,33.5009983 47.7295175,34.8261065 47.7295175,36.1828952 C47.6217804,36.2021131 47.5313977,36.2278536 47.4401997,36.2319301 C47.3448087,36.2361231 47.2486023,36.2194676 47.07203,36.2054908 C47.07203,35.6195175 47.07203,35.0323794 47.07203,34.4160067 C46.4199002,34.4158902 45.8487188,34.4158902 45.1823794,34.4158902 Z"></path>
                <path d="M100.752479,28.067787 C100.452213,28.067787 100.244193,28.067787 99.9562729,28.067787 C99.9142263,26.8622962 99.9603494,25.6689185 99.9300666,24.4365225 C99.7601331,24.417421 99.6136106,24.3877205 99.4669717,24.3865557 C98.789218,24.3814309 98.1107654,24.3666389 97.433827,24.3908652 C97.0465557,24.4047255 96.8048752,24.2738103 96.6938769,23.8569551 C96.8494842,23.6467221 97.0193012,23.4173877 97.2167221,23.1506656 C97.463178,23.4755075 97.7724126,23.5048586 98.1121631,23.4974043 C98.8670216,23.4807488 99.622579,23.490416 100.377787,23.4935607 C100.566705,23.494376 100.755624,23.5111481 101.01198,23.5238436 C100.984493,23.7835774 101.031664,24.0530948 100.921481,24.2162729 C100.738386,24.4876539 100.754576,24.7599667 100.753527,25.0448586 C100.750616,25.8388519 100.752479,26.6328453 100.752479,27.4268386 C100.752479,27.6171547 100.752479,27.8074709 100.752479,28.067787 Z"></path>
                <path d="M92.298203,24.3841098 C91.3913478,24.3841098 90.6004992,24.3693178 89.8105824,24.3905158 C89.434609,24.4006489 89.1700998,24.3002496 89.0418636,23.8732612 C89.1914143,23.6675707 89.3590183,23.4369551 89.5634276,23.1556739 C89.8127953,23.5083527 90.151381,23.4984526 90.4981198,23.4950749 C91.4260566,23.486223 92.3542263,23.4920466 93.3165225,23.4920466 C93.3476206,23.8232945 93.3945591,24.1037604 93.1776872,24.3842263 C93.0863727,24.502213 93.0918469,24.7115141 93.0902163,24.8797005 C93.0822962,25.7315807 93.0866057,26.5834609 93.0866057,27.4353411 C93.0866057,27.6251913 93.0866057,27.8150416 93.0866057,28.048802 C92.813594,28.048802 92.5928785,28.048802 92.298203,28.048802 C92.298203,26.8541431 92.298203,25.6628619 92.298203,24.3841098 Z"></path>
                <path d="M127.756522,35.3411481 C127.241481,35.3411481 126.741464,35.3411481 126.194742,35.3411481 C126.084093,35.6122962 125.969368,35.8933444 125.84614,36.1953577 C125.635674,36.1953577 125.434992,36.1953577 125.145557,36.1953577 C125.642313,34.8072379 126.116589,33.4821298 126.597271,32.1388519 C126.876572,32.1388519 127.120116,32.1388519 127.402795,32.1388519 C127.889418,33.4771215 128.370682,34.8003661 128.875241,36.18802 C128.59,36.18802 128.371265,36.18802 128.117238,36.18802 C128.003095,35.9200166 127.883245,35.6385025 127.756522,35.3411481 Z M127.022745,33.17802 C126.989318,33.1788353 126.955774,33.1795341 126.922346,33.1803494 C126.75218,33.6723295 126.581897,34.164193 126.400782,34.6875042 C126.82183,34.6875042 127.158785,34.6875042 127.557238,34.6875042 C127.366223,34.1480033 127.194426,33.6630116 127.022745,33.17802 Z"></path>
                <path d="M68.8385358,32.1414143 C69.0917471,32.1414143 69.276589,32.1414143 69.5106988,32.1414143 C69.5232779,32.359218 69.5421464,32.5473211 69.5434276,32.7355408 C69.5480865,33.4330948 69.5360899,34.1308819 69.5513478,34.828203 C69.5643927,35.4246589 69.7819634,35.6343095 70.3597837,35.659584 C71.0173877,35.6883527 71.3245258,35.4863894 71.3656406,34.8916805 C71.4123461,34.2164892 71.3854409,33.5362895 71.3897504,32.8581864 C71.3911481,32.6309484 71.3899834,32.4037105 71.3899834,32.142812 C71.6427288,32.142812 71.8267554,32.142812 72.0327953,32.142812 C72.0581864,32.2684859 72.0988353,32.3784359 72.0997671,32.4887354 C72.1057072,33.1862895 72.1102496,33.8839601 72.1001165,34.5813977 C72.093827,35.0135108 71.9991348,35.4220965 71.7250749,35.7781531 C71.2102662,36.4470549 69.6828453,36.4222463 69.2240599,35.9214143 C69.0393344,35.7196839 68.867188,35.422213 68.8558902,35.1609651 C68.8127953,34.1775874 68.8385358,33.1911814 68.8385358,32.1414143 Z"></path>
                <path d="M118.437554,32.1404825 C118.704742,32.1404825 118.889235,32.1404825 119.12614,32.1404825 C119.138253,32.3572379 119.156539,32.5451082 119.15782,32.7332113 C119.162363,33.4305324 119.150599,34.1280865 119.16574,34.8251747 C119.178669,35.4190682 119.398802,35.6331448 119.970216,35.6593511 C120.628403,35.6896339 120.93624,35.4898835 120.978752,34.8957571 C121.027088,34.2210316 120.999484,33.5408319 121.004027,32.8630782 C121.005541,32.6351414 121.00426,32.4070882 121.00426,32.145025 C121.25386,32.145025 121.437304,32.145025 121.661747,32.145025 C121.681431,32.3056406 121.71381,32.4536772 121.715208,32.6019468 C121.721032,33.2218136 121.72802,33.8419135 121.712413,34.4614309 C121.705657,34.7301331 121.671181,35.004426 121.602928,35.2639268 C121.487621,35.7023295 121.205408,36.0168053 120.77015,36.1630948 C120.280499,36.3276705 119.778153,36.3309318 119.285358,36.1831281 C118.787554,36.0339268 118.528636,35.6663394 118.457354,35.1645757 C118.433012,34.9930116 118.438719,34.8165557 118.438369,34.6424293 C118.436622,33.8310815 118.437554,33.0199667 118.437554,32.1404825 Z"></path>
                <path d="M117.214126,24.3841098 C116.51797,24.3841098 115.938985,24.3863228 115.36,24.383411 C114.874077,24.3809651 114.874077,24.3782862 114.551564,23.8983028 C114.720915,23.6703661 114.900632,23.4285691 115.113428,23.1421631 C115.343344,23.4781864 115.634293,23.5053245 115.955524,23.4971714 C116.610566,23.4805158 117.26619,23.4921631 117.962579,23.4921631 C117.962579,25.0381032 117.962579,26.5202163 117.962579,28.0397171 C117.84599,28.0582363 117.737088,28.0868885 117.627488,28.0899168 C117.513461,28.0930616 117.398852,28.0713977 117.214126,28.0539268 C117.214126,26.8539101 117.214126,25.660183 117.214126,24.3841098 Z"></path>
                <path d="M54.0960233,23.1421631 C54.336772,23.5438769 54.6917804,23.4955408 55.036772,23.4933278 C55.654426,23.4892512 56.2720799,23.4921631 56.8756406,23.4921631 C57.0097005,23.9596839 57.0293844,27.4220632 56.9079035,28.0592845 C56.7102496,28.0592845 56.5053744,28.0592845 56.2275874,28.0592845 C56.1298669,27.4571215 56.1933444,26.8436606 56.1820466,26.2361398 C56.1709817,25.6414309 56.1796007,25.0463727 56.1796007,24.3841098 C55.5086023,24.3841098 54.9124958,24.368386 54.3176705,24.389817 C53.9393677,24.4034443 53.6792845,24.2939601 53.5679368,23.8617304 C53.7210982,23.6530116 53.8896339,23.4233278 54.0960233,23.1421631 Z"></path>
                <path d="M80.8532612,36.2101498 C80.5492679,36.2101498 80.3221464,36.2101498 80.050416,36.2101498 C79.5746256,34.8778203 79.1020965,33.5546922 78.6296839,32.231797 C79.2532779,32.0023461 79.3544925,32.0426456 79.5445757,32.5978702 C79.8385524,33.4565058 80.1262396,34.3174709 80.4555075,35.2926955 C80.8483694,34.1961065 81.2073378,33.1945591 81.5802829,32.1536439 C81.7994842,32.1536439 82.0153078,32.1536439 82.3105657,32.1536439 C81.8122962,33.540599 81.3373211,34.8626789 80.8532612,36.2101498 Z"></path>
                <path d="M84.9202496,35.6104326 C84.9202496,35.8596839 84.9202496,36.0081864 84.9202496,36.1968719 C84.2056905,36.1968719 83.5178037,36.1968719 82.8315474,36.1968719 C82.6943428,35.7371547 82.6879368,32.6656572 82.828985,32.1360566 C83.493228,32.1360566 84.1662063,32.1360566 84.8494343,32.1360566 C84.8769218,32.1833444 84.9236273,32.2294676 84.929218,32.2802496 C84.9414476,32.3918303 84.9330616,32.5057404 84.9330616,32.6929118 C84.4478369,32.6929118 83.993594,32.6929118 83.4959068,32.6929118 C83.4959068,33.0822795 83.4959068,33.3979201 83.4959068,33.7849584 C83.8422962,33.7849584 84.1666722,33.7748253 84.4902329,33.7875208 C84.8822795,33.8030116 84.8890349,33.8211814 84.8537438,34.3562562 C84.6360566,34.3653411 84.4110316,34.3780366 84.1858902,34.3830449 C83.9744925,34.3877038 83.7628619,34.3839767 83.501614,34.3839767 C83.501614,34.7966389 83.501614,35.1709817 83.501614,35.6105491 C83.9570216,35.6104326 84.4123128,35.6104326 84.9202496,35.6104326 Z"></path>
                <path d="M58.7729784,36.2033943 C58.7729784,34.8467221 58.7729784,33.5202163 58.7729784,32.1491015 C59.4876539,32.1491015 60.1742596,32.1491015 60.9136273,32.1491015 C60.9208486,32.3153078 60.9278369,32.4753411 60.938203,32.711198 C60.4313145,32.711198 59.9756739,32.711198 59.4868386,32.711198 C59.4868386,33.0855408 59.4868386,33.3868552 59.4868386,33.7552579 C59.81599,33.7651581 60.1375707,33.7712146 60.4586855,33.7853078 C60.8895175,33.8041764 60.908386,33.8336439 60.8259235,34.3752413 C60.3995175,34.3752413 59.9616972,34.3752413 59.4884692,34.3752413 C59.4884692,34.8104992 59.4884692,35.1862396 59.4884692,35.623827 C59.9717138,35.623827 60.4285191,35.623827 60.9138602,35.623827 C60.9138602,35.8469884 60.9138602,36.0084193 60.9138602,36.2032779 C60.1921963,36.2033943 59.5043095,36.2033943 58.7729784,36.2033943 Z"></path>
                <path d="M42.3023627,32.1445591 C42.2933943,32.3480366 42.2869884,32.4942097 42.2774376,32.7102662 C41.7937271,32.7102662 41.3389018,32.7102662 40.8494842,32.7102662 C40.8494842,33.0815807 40.8494842,33.3823128 40.8494842,33.7574709 C41.189817,33.7666722 41.5294509,33.7690017 41.8682696,33.7870549 C42.2483195,33.8073211 42.261015,33.8336439 42.1991681,34.3641764 C41.7715973,34.3641764 41.3345923,34.3641764 40.8558902,34.3641764 C40.8558902,34.7962895 40.8558902,35.1709817 40.8558902,35.6071714 C41.3166556,35.6071714 41.7719468,35.6071714 42.2696339,35.6071714 C42.2847754,35.8257903 42.2960732,35.9871048 42.3103993,36.1943095 C41.5790682,36.1943095 40.8922296,36.1943095 40.2043428,36.1943095 C40.0618968,35.7952745 40.035574,32.779218 40.1786023,32.1446755 C40.8547255,32.1445591 41.5407488,32.1445591 42.3023627,32.1445591 Z"></path>
                <path d="M78.4935275,28.0674376 C78.2605824,28.0674376 78.0721298,28.0674376 77.8015641,28.0674376 C77.7336606,26.8734775 77.8066889,25.6805657 77.7578869,24.4226622 C77.5129451,24.4090349 77.2901331,24.3890017 77.0672047,24.3857404 C76.6604825,24.3799168 76.2525957,24.3667554 75.8469218,24.3891181 C75.4885358,24.4089185 75.2456905,24.2903494 75.114193,23.8796672 C75.2675874,23.6679201 75.4443927,23.4237937 75.6481032,23.142396 C75.8768552,23.4760899 76.1682696,23.5055574 76.4925291,23.4970549 C77.146173,23.4799334 77.8005158,23.4919301 78.493411,23.4919301 C78.4935275,25.0358902 78.4935275,26.5176539 78.4935275,28.0674376 Z"></path>
                <path d="M114.118286,33.816406 C114.132263,33.9957737 114.143444,34.140782 114.161032,34.3666223 C113.690483,34.3666223 113.256855,34.3666223 112.789567,34.3666223 C112.789567,34.8045591 112.789567,35.1655075 112.789567,35.5942429 C113.241481,35.5942429 113.696306,35.5942429 114.200516,35.5942429 C114.218336,35.8179867 114.231032,35.9787188 114.250366,36.2209817 C113.511348,36.2528952 112.823927,36.2325125 112.147687,36.2319301 C112.001864,35.7830449 111.979734,32.7771215 112.114027,32.140599 C112.793411,32.140599 113.480483,32.140599 114.161614,32.140599 C114.26213,32.65203 114.237321,32.6932612 113.81406,32.7141098 C113.639933,32.7227288 113.464875,32.7117804 113.290516,32.7177205 C113.138985,32.7228453 112.987687,32.7389185 112.795973,32.7532446 C112.795973,33.0766889 112.795973,33.3776539 112.795973,33.7475707 C113.220399,33.7697005 113.653561,33.7921797 114.118286,33.816406 Z"></path>
                <path d="M50.902812,32.1468885 C51.0214975,32.6414309 50.9944759,32.6962895 50.5797171,32.7129451 C50.2540599,32.72599 49.9275874,32.7155075 49.5528952,32.7155075 C49.5528952,33.0797171 49.5528952,33.3931448 49.5528952,33.7747088 C49.9878037,33.7747088 50.404426,33.7747088 50.8655408,33.7747088 C50.8655408,33.998802 50.8655408,34.1561564 50.8655408,34.3729118 C50.4283028,34.3729118 50.0105158,34.3729118 49.5490516,34.3729118 C49.5490516,34.8036273 49.5490516,35.1768053 49.5490516,35.6182363 C50.0168053,35.6182363 50.4713977,35.6182363 50.949401,35.6182363 C50.949401,35.8473378 50.949401,36.0086522 50.949401,36.2033943 C50.2364725,36.2033943 49.5659401,36.2033943 48.89599,36.2033943 C48.756223,35.8118136 48.7217471,32.889401 48.8553411,32.146772 C49.5329784,32.1468885 50.2188852,32.1468885 50.902812,32.1468885 Z"></path>
                <path d="M125.104093,28.3024792 C125.104093,27.9645923 125.104093,27.7195341 125.104093,27.4331281 C125.5602,27.3191015 126.002679,27.2084526 126.487438,27.0872047 C126.487438,26.6027953 126.487438,26.1416805 126.487438,25.6804493 C126.487438,25.2174709 126.487438,24.754376 126.487438,24.283827 C126.220832,24.1229784 125.976123,23.9752912 125.672945,23.7924293 C125.829717,23.5768386 125.972163,23.3811647 126.150832,23.1356406 C126.470316,23.2885691 126.785957,23.4206489 127.079351,23.5909318 C127.177072,23.6476539 127.275025,23.8015141 127.27619,23.9119301 C127.289817,25.2048918 127.284925,26.4980865 127.284925,27.8506822 C126.557438,28.0012812 125.864426,28.1448918 125.104093,28.3024792 Z"></path>
                <path d="M132.020699,32.1433943 C132.680632,32.1433943 133.348952,32.1433943 134.072246,32.1433943 C134.080516,32.3161231 134.08797,32.4746423 134.099384,32.7124792 C133.607521,32.7124792 133.171797,32.7124792 132.699967,32.7124792 C132.699967,33.0885691 132.699967,33.3888353 132.699967,33.7514143 C132.915208,33.7625957 133.120666,33.7775042 133.326473,33.7827454 C133.537754,33.7881032 133.749268,33.7839101 134.016456,33.7839101 C134.035674,33.9792346 134.051048,34.1367055 134.073062,34.3606822 C133.600416,34.3606822 133.182745,34.3606822 132.713128,34.3606822 C132.713128,34.7938436 132.713128,35.1672546 132.713128,35.6057737 C133.146522,35.6057737 133.583411,35.6057737 134.065607,35.6057737 C134.081797,35.8266057 134.093561,35.9871048 134.108702,36.194193 C133.390998,36.194193 132.721398,36.194193 132.049584,36.194193 C131.909118,35.7986522 131.880815,32.8211481 132.020699,32.1433943 Z"></path>
                <path d="M124.631331,32.1500333 C124.631331,32.3221797 124.631331,32.4878037 124.631331,32.7052579 C124.471298,32.6852246 124.346323,32.6583195 124.220882,32.6563394 C124.009834,32.6529617 123.792612,32.6371215 123.588785,32.6790516 C123.374476,32.7231947 123.195108,32.8590017 123.159817,33.1003328 C123.12406,33.3439933 123.26173,33.5127621 123.459035,33.6185191 C123.697221,33.7462895 123.9502,33.8464559 124.196656,33.9588519 C124.684792,34.1815474 124.960483,34.5296839 124.907371,35.0978369 C124.856123,35.647005 124.549334,35.984426 124.054559,36.1630948 C123.567238,36.3390849 123.072812,36.3061231 122.549384,36.177188 C122.549384,35.9734775 122.549384,35.7903827 122.549384,35.5749085 C122.805857,35.5989018 123.030416,35.6312812 123.255674,35.6374542 C123.428286,35.6422296 123.625358,35.6602829 123.768502,35.5877205 C123.922945,35.5094509 124.077155,35.3526789 124.141564,35.1938103 C124.227754,34.9812479 124.127471,34.7635607 123.918985,34.6494176 C123.64807,34.5010316 123.361664,34.3807155 123.082013,34.2485191 C122.639185,34.0391015 122.382829,33.712629 122.407404,33.1995674 C122.430466,32.717604 122.706855,32.3281198 123.197554,32.1581864 C123.661464,31.9975707 124.135391,31.939218 124.631331,32.1500333 Z"></path>
                <path d="M91.1931115,32.1421131 C91.1931115,32.3213644 91.1931115,32.4869884 91.1931115,32.6999002 C91.0327288,32.6820799 90.9074043,32.6591348 90.781614,32.656223 C90.5703328,32.6513311 90.3538103,32.6319967 90.1485857,32.6693844 C89.9315973,32.708985 89.7608486,32.8443261 89.720782,33.0874043 C89.6803661,33.332812 89.7981198,33.5055408 90.0018303,33.6102496 C90.2937105,33.7601498 90.6066722,33.8704493 90.8926123,34.0299002 C91.4384027,34.3341265 91.6223128,34.8487022 91.394376,35.4154576 C91.2059235,35.8841431 90.8412479,36.1717138 90.3474043,36.2283195 C89.9508153,36.2737438 89.5449085,36.2375208 89.0707488,36.2375208 C89.0819301,35.9853577 89.0906656,35.7894509 89.0995175,35.5886522 C89.4604659,35.6077537 89.765624,35.6433943 90.0693844,35.6350083 C90.4471048,35.6245258 90.6661897,35.449817 90.7161564,35.1715641 C90.7633278,34.9089185 90.6509318,34.7275707 90.3036106,34.5508819 C90.0799834,34.4370882 89.8426123,34.3508985 89.6160732,34.2424626 C89.1973544,34.0422463 88.9589351,33.7311481 88.9627787,33.2411481 C88.9665058,32.757787 89.1939767,32.4188519 89.6052413,32.2228286 C90.1080532,31.9832446 90.6385857,31.9384027 91.1931115,32.1421131 Z"></path>
                <path d="M99.6719634,32.1923128 C99.4923627,32.5637438 99.3184692,32.9249251 99.1432945,33.2854077 C99.0841265,33.4072379 99.0299667,33.5325624 98.9592679,33.6475208 C98.5531281,34.3080366 98.330782,35.0111814 98.4269884,35.7970216 C98.4404992,35.9076705 98.4095175,36.0239101 98.3947255,36.1852246 C98.1814642,36.1852246 97.9841597,36.1852246 97.7089351,36.1852246 C97.7089351,35.9130283 97.6921631,35.6466556 97.7127787,35.3833111 C97.745624,34.9622629 97.6345092,34.5880366 97.4415141,34.2176539 C97.1553411,33.6687188 96.8964226,33.1054576 96.6307488,32.5459235 C96.5755408,32.4296839 96.5415308,32.3033111 96.4958735,32.176822 C97.1626789,32.0559235 97.1653577,32.0546423 97.4176373,32.5824958 C97.6227454,33.0114642 97.8202829,33.4440433 98.0705824,33.9812146 C98.3341597,33.4299501 98.5447421,32.9817637 98.7620799,32.5369551 C99.0013145,32.047421 99.0041098,32.0487022 99.6719634,32.1923128 Z"></path>
                <path d="M107.853344,33.8878037 C107.853344,34.0946589 107.853344,34.2260399 107.853344,34.4243927 C107.407488,34.448386 106.97619,34.4716805 106.49411,34.4976539 C106.49411,35.0673211 106.49411,35.6021631 106.49411,36.1853411 C106.242296,36.1853411 106.043943,36.1853411 105.785724,36.1853411 C105.729584,34.8572047 105.768835,33.5327953 105.759867,32.1560899 C106.490499,32.0590682 107.176406,32.1198669 107.849151,32.1121797 C108.014309,32.6275707 107.972845,32.7035108 107.518835,32.7191181 C107.195391,32.730183 106.871131,32.7213311 106.51624,32.7213311 C106.51624,33.1104659 106.51624,33.4325125 106.51624,33.8268885 C106.939501,33.8461065 107.370333,33.8656739 107.853344,33.8878037 Z"></path>
                <path d="M32.4113977,32.6783527 C32.4113977,32.4772047 32.4113977,32.3300998 32.4113977,32.1440932 C33.3776539,32.1440932 34.3136273,32.1440932 35.2866389,32.1440932 C35.2866389,32.3299834 35.2866389,32.4900166 35.2866389,32.6851082 C34.9515474,32.7080532 34.6479035,32.7289018 34.2691348,32.7548752 C34.1818968,33.8852413 34.2805491,35.0193344 34.2093844,36.1888353 C33.9781864,36.1888353 33.7820466,36.1888353 33.5256905,36.1888353 C33.5256905,35.0486855 33.5256905,33.9345092 33.5256905,32.7674542 C33.1210649,32.7350749 32.7689684,32.7068885 32.4113977,32.6783527 Z"></path>
                <path d="M95.1974376,32.7616306 C95.1974376,33.9274043 95.1974376,35.0284193 95.1974376,36.1990849 C94.9679867,36.2114309 94.7692845,36.22203 94.4876539,36.2371714 C94.4876539,35.0576539 94.4876539,33.9271714 94.4876539,32.7613977 C94.1093511,32.7357737 93.8073378,32.7152745 93.4495341,32.6910483 C93.4289185,32.5256572 93.4091181,32.367371 93.3935108,32.242396 C93.5766057,32.0722296 95.437604,32.0412479 96.3004326,32.16401 C96.3097504,32.3128619 96.3197671,32.4728952 96.332579,32.6773045 C95.9455408,32.7059567 95.6066057,32.7311148 95.1974376,32.7616306 Z"></path>
                <path d="M51.5406156,23.1765225 C51.6586023,23.1894509 51.6999501,23.1849085 51.7336106,23.1988852 C52.6835607,23.5947754 52.6834443,23.5951248 52.6834443,24.618802 C52.6834443,25.5665391 52.6850749,26.5141597 52.6820466,27.4617804 C52.6814642,27.6502329 52.6635275,27.8386855 52.6519967,28.0582363 C52.4135774,28.0582363 52.2118469,28.0582363 51.946173,28.0582363 C51.946173,26.7891514 51.946173,25.5407987 51.946173,24.3148087 C51.6475374,24.1289185 51.4039933,23.9773877 51.1060566,23.7919634 C51.259218,23.575208 51.3986356,23.3776705 51.5406156,23.1765225 Z"></path>
                <path d="M128.836922,24.3116639 C128.545624,24.1326456 128.30173,23.9827454 127.993078,23.7931281 C128.157072,23.5700832 128.308253,23.3646256 128.43416,23.193411 C128.538636,23.193411 128.581032,23.1819967 128.613295,23.1950416 C129.571747,23.5846423 129.571631,23.5851082 129.571631,24.6119301 C129.571631,25.5592013 129.573145,26.5063561 129.570349,27.4535108 C129.569767,27.6420799 129.552995,27.8306489 129.54193,28.0545092 C129.303278,28.0545092 129.100965,28.0545092 128.836922,28.0545092 C128.836922,26.7985857 128.836922,25.5508153 128.836922,24.3116639 Z"></path>
                <path d="M129.355108,36.1997837 C129.355108,34.8205158 129.355108,33.4943594 129.355108,32.140599 C129.583511,32.140599 129.767887,32.140599 130.0098,32.140599 C130.0098,33.2870383 130.0098,34.4033111 130.0098,35.5800333 C130.494559,35.6036772 130.927371,35.6248752 131.394309,35.6477038 C131.394309,35.8409318 131.394309,36.0015474 131.394309,36.1997837 C130.715973,36.1997837 130.065241,36.1997837 129.355108,36.1997837 Z"></path>
                <path d="M92.2424126,32.1339601 C92.4547421,32.1339601 92.6415641,32.1339601 92.8201165,32.1339601 C92.9572047,32.5896007 92.9779368,35.5284359 92.843411,36.2035108 C92.6597338,36.2125957 92.4598669,36.2223794 92.270599,36.2316972 C92.1420133,35.7611481 92.1215141,32.8135774 92.2424126,32.1339601 Z"></path>
                <path d="M109.492463,36.2057238 C109.492463,36.0077205 109.492463,35.8598003 109.492463,35.708619 C109.564908,35.6825291 109.61604,35.651198 109.669384,35.6468885 C110.281564,35.5970383 110.30183,35.5817804 110.306722,34.9522463 C110.312429,34.2183527 110.306373,33.4844592 110.30975,32.7505657 C110.310682,32.5621131 110.328037,32.373777 110.34015,32.1416473 C110.561913,32.1293012 110.746406,32.1190516 110.962696,32.1070549 C110.988552,32.2672047 111.026406,32.3947421 111.027105,32.5225125 C111.03223,33.3915141 111.039101,34.2607488 111.026522,35.1297504 C111.014759,35.9489018 110.647987,36.285624 109.834542,36.2542928 C109.740782,36.2506822 109.647604,36.2283195 109.492463,36.2057238 Z"></path>
                <path d="M77.4717138,36.1853411 C77.4717138,34.82797 77.4717138,33.5189351 77.4717138,32.1430449 C77.6878869,32.1333777 77.8853078,32.1246423 78.168802,32.1119468 C78.1756739,33.4888852 78.1714809,34.8121298 78.1712479,36.1853411 C77.9272379,36.1853411 77.7297005,36.1853411 77.4717138,36.1853411 Z"></path>
                <path d="M72.7294176,23.7675042 C72.8942263,23.5451581 73.0280532,23.3645092 73.1950749,23.1389018 C73.5182862,23.2934609 73.8338103,23.4253078 74.1272047,23.5954742 C74.2222463,23.6505657 74.3113478,23.804426 74.3141431,23.9154243 C74.3312646,24.5886356 74.3226456,25.2625458 74.3226456,26.0097171 C74.0567388,26.0235774 73.8278702,26.0354576 73.512579,26.0518802 C73.512579,25.61802 73.4925458,25.2560233 73.5177038,24.8971714 C73.548802,24.4538769 73.4800832,24.0933943 72.9844925,23.9549085 C72.9163561,23.935807 72.8620799,23.8673211 72.7294176,23.7675042 Z"></path>
                <path d="M38.050416,23.7842762 C38.2289684,23.5421298 38.3638436,23.3590349 38.4927787,23.1840932 C38.5821131,23.1908486 38.6443095,23.1808319 38.6936938,23.2015641 C39.6378203,23.5980366 39.6374709,23.5987354 39.6375874,24.6256739 C39.6375874,25.0688519 39.6375874,25.5119135 39.6375874,26.0112313 C39.3842596,26.0112313 39.1707654,26.0112313 38.8998502,26.0112313 C38.8998502,25.4207155 38.8998502,24.8476705 38.8998502,24.2820799 C38.6077371,24.1108652 38.3604659,23.9659734 38.050416,23.7842762 Z"></path>
                <path d="M58.6997171,26.021015 C58.6997171,25.4062729 58.6997171,24.8314809 58.6997171,24.2690349 C58.4130782,24.1014309 58.1673211,23.9577038 57.8756739,23.787188 C58.0411814,23.5615807 58.1849085,23.3656739 58.3095341,23.1958569 C58.3994509,23.1918968 58.4426622,23.1772213 58.4739933,23.1904992 C59.4529451,23.6043261 59.4527121,23.604792 59.4527121,24.6490849 C59.4527121,25.0908652 59.4527121,25.5327621 59.4527121,26.021015 C59.1809817,26.021015 58.9646922,26.021015 58.6997171,26.021015 Z"></path>
                <path d="M106.782962,23.7880033 C106.963727,23.5484193 107.100932,23.3667221 107.27797,23.13203 C107.576839,23.2747088 107.878968,23.3935108 108.150815,23.5613478 C108.258552,23.6278536 108.356739,23.8012812 108.360582,23.9289351 C108.381082,24.6026123 108.37025,25.2773378 108.37025,26.0094842 C108.114942,26.0094842 107.902379,26.0094842 107.634376,26.0094842 C107.634376,25.4240932 107.634376,24.8511647 107.634376,24.2756739 C107.348436,24.1119135 107.100699,23.9699334 106.782962,23.7880033 Z"></path>
                <path d="M123.430499,23.1796672 C123.540216,23.1888686 123.581681,23.1826955 123.614875,23.1965557 C124.564476,23.5923295 124.564359,23.5926789 124.564476,24.6206656 C124.564476,25.0788686 124.564476,25.5370715 124.564476,26.0299834 C124.284476,26.0299834 124.083095,26.0299834 123.827554,26.0299834 C123.827554,25.4273544 123.827554,24.8550083 123.827554,24.2768386 C123.54208,24.1136606 123.294459,23.9721464 122.984642,23.7951082 C123.141997,23.5778869 123.283394,23.3827953 123.430499,23.1796672 Z"></path>
                <path d="M136.593062,28.0588186 C136.334376,28.0588186 136.114592,28.0588186 135.824343,28.0588186 C135.824343,27.2608652 135.818053,26.4945923 135.832962,25.7287854 C135.834709,25.6408486 135.937205,25.5219301 136.023977,25.475807 C136.186805,25.3895008 136.37223,25.3459401 136.592945,25.2690682 C136.593062,26.2324126 136.593062,27.1284359 136.593062,28.0588186 Z"></path>
                <path d="M97.705208,25.3178702 C97.705208,26.2200666 97.705208,27.1151581 97.705208,28.0518303 C97.4628286,28.0518303 97.2423461,28.0518303 96.9626955,28.0518303 C96.95198,27.7602995 96.9366057,27.4772712 96.9324126,27.19401 C96.9271714,26.8468053 96.9303161,26.4994842 96.9313644,26.1522795 C96.9334609,25.4688186 96.9339268,25.4688186 97.705208,25.3178702 Z"></path>
                <path d="M90.0216306,28.0659235 C89.8007987,28.0659235 89.6121131,28.0659235 89.3982696,28.0659235 C89.2346256,27.658619 89.3409651,27.2305824 89.3218636,26.8145424 C89.303228,26.4098003 89.317787,26.0035441 89.317787,25.5569884 C89.5388519,25.4636938 89.7454742,25.3764559 89.9546589,25.2880532 C90.096406,25.7007155 90.1309983,27.147421 90.0216306,28.0659235 Z"></path>
            </g>
        </g>
    </g>
</svg>